<?xml version="1.0" encoding="utf-8"?>
<!-- Generator: Adobe Illustrator 16.0.0, SVG Export Plug-In . SVG Version: 6.00 Build 0)  -->
<!DOCTYPE svg PUBLIC "-//W3C//DTD SVG 1.1//EN" "http://www.w3.org/Graphics/SVG/1.1/DTD/svg11.dtd">
<svg version="1.1" id="Layer_1" xmlns="http://www.w3.org/2000/svg" xmlns:xlink="http://www.w3.org/1999/xlink" x="0px" y="0px"
	 width="274px" height="274px" viewBox="0 0 274 274" enable-background="new 0 0 274 274" xml:space="preserve">
<g>
	<g>
		<ellipse opacity="0.2" fill="#FAA41A" cx="136.062" cy="135.291" rx="121.465" ry="121.436"/>
		<path d="M137,8.5C66.031,8.5,8.5,66.031,8.5,137S66.031,265.5,137,265.5S265.5,207.969,265.5,137S207.969,8.5,137,8.5z
			 M137,255.183c-65.271,0-118.183-52.912-118.183-118.183S71.729,18.817,137,18.817S255.183,71.729,255.183,137
			S202.271,255.183,137,255.183z"/>
	</g>
	<path fill-rule="evenodd" clip-rule="evenodd" fill="#060606" d="M116.941,211.743c-0.144,0-0.285,0-0.428,0
		c0.1-0.38-0.231-0.462-0.444-0.595c-9.402-5.934-16.512-13.999-21.962-23.605c-6.297-11.102-11.512-22.733-15.906-34.671
		c-7.613-20.678-20.054-37.675-37.387-51.152c-2.823-2.195-5.49-4.658-8.838-6.109c0-0.284,0-0.569,0-0.854
		c3.696-0.685,7.118-2.234,10.652-3.424c11.365-3.831,22.701-7.75,34.388-11.75c-1.326-0.833-2.392-1.5-3.455-2.17
		c-1.095-0.689-2.188-1.381-3.362-2.12c0.345-0.318,0.482-0.477,0.65-0.595c15.145-10.622,32-13.059,49.923-10.482
		c1.729,0.249,3.414,0.984,5.237,0.501c9.872-2.617,19.916-2.85,30.021-2.062c2.471,0.192,5.007,1.148,7.37,0.793
		c6.952-1.044,13.876-1.154,20.801-0.234c7.807,1.038,15.256,3.204,21.61,8.15c5.489,4.273,9.145,10.06,12.867,15.778
		c0.48,0.737,1.47,1.408,1.135,2.371c-0.304,0.875-1.364,1.189-2.342,1.687c3.475,1.47,6.471,3.332,9.178,5.671
		c6.209,5.369,10.81,12.001,15.059,18.934c0.617,1.01,0.256,1.481-0.416,2.132c-2.25,2.176-4.433,4.42-6.694,6.583
		c-1.805,1.724-3.344,3.558-4.375,5.908c-1.453,3.311-3.928,5.896-6.832,8.03c-1.048,0.771-1.89,1.671-2.614,2.747
		c-4.575,6.792-10.404,12.186-17.857,15.699c-2.605,1.228-5.281,2.293-8.489,2.85c0.613-0.849,1.028-1.408,1.429-1.978
		c3.432-4.868,6.103-10.036,6.566-16.126c0.089-1.174-0.255-1.847-1.279-2.367c-3.66-1.862-7.258-3.855-10.949-5.654
		c-4.887-2.382-10.069-2.988-15.342-1.723c-8.542,2.052-15.169,6.843-19.679,14.438c-0.327,0.552-1.174,1.233,0.189,1.764
		c3.853,1.496,5.4,4.784,6.385,8.469c0.997,3.739,0.633,7.63,1.268,11.413c0.786,4.69,2.141,9.103,5.674,12.56
		c0.858,0.84,1.639,1.028,2.839,0.679c5.619-1.644,10.82-4.178,15.83-7.146c4.273-2.531,8.271-5.469,12.562-8.815
		c-2.3,7.355-5.282,13.86-9.634,19.973c3.141-0.438,5.985-0.834,9.188-1.279c-0.457,0.515-0.664,0.781-0.902,1.014
		c-5.78,5.618-11.987,10.692-19.045,14.634c-9.425,5.261-19.351,8.083-30.219,5.697c-4.177-0.918-8.085-2.518-11.938-4.97
		c2.529-0.37,4.764-0.346,6.839-1.175c1.462-0.584,2.374-1.601,1.198-3.084c-3.479-4.389-10.043-8.381-16.951-5.041
		c-3.393,1.639-6.045,4.186-8.457,7.019C116.565,202.084,114.815,206.478,116.941,211.743z M148.205,71.389
		c-0.05-0.058-0.098-0.116-0.15-0.173c2.393-1.921,5.484-2.672,8.36-4.85c-8.599-1.248-16.634-0.69-24.818,0.583
		c4.363,2.166,7.464,5.681,10.688,9.058c0.634,0.666,1.293,0.276,1.963,0.034c11.503-4.146,23.309-6.045,35.536-4.746
		c6.49,0.69,12.75,2.003,17.991,6.324c2.303,1.898,4.609,3.761,6.755,5.856c2.566,2.509,5.681,4.05,9.596,4.087
		c-0.186-0.536-0.235-0.819-0.372-1.054c-4.729-8.179-11.465-14.074-20.313-17.378c-10.682-3.99-21.585-3.388-32.48-1.017
		C156.672,69.046,152.454,70.288,148.205,71.389z M88.233,81.627c0.116,0.154,0.234,0.336,0.41,0.077
		c0.018-0.025-0.145-0.172-0.224-0.262c-0.696-1.502-1.911-2.626-2.875-3.932c-0.641-0.869-0.831-1.405,0.601-1.626
		c2.457-0.379,4.927-0.765,7.396-0.671c7.207,0.276,13.914,2.119,20.121,6.029c5.013,3.158,10.478,5.491,16.661,4.521
		c2.78-0.436,5.555-1.402,6.626-4.322c1.005-2.738-0.945-4.741-2.592-6.555c-2.391-2.635-5.534-4.209-8.852-5.345
		c-10.17-3.483-20.495-3.225-30.846-0.983c-5.857,1.268-11.335,3.542-16.812,6.822C81.476,77.563,84.854,79.597,88.233,81.627z
		 M200.91,111.125c-4.614-2.016-9.259-3.893-14.298-4.649c-7.03-1.056-14.033-0.844-21.049,0.025
		c2.185,0.28,4.374,0.349,6.559,0.573c7.947,0.818,15.45,2.926,22.243,7.21c3.796,2.393,7.221,5.227,9.728,9.029l-0.096,0.097
		c-0.525-0.2-1.06-0.385-1.579-0.602c-8.862-3.681-17.927-5.994-27.565-3.694c-7.381,1.761-13.438,5.591-17.774,11.937
		c-0.06,0.024-0.129,0.037-0.178,0.077c-0.024,0.021-0.01,0.09-0.015,0.138c0.062-0.075,0.122-0.149,0.183-0.226
		c1.404,0.244,2.557-1.047,4.295-0.68c-3.056,2.917-5.898,5.736-7.369,9.571c-0.232,0.216-0.702,0.528-0.413,0.751
		c0.379,0.292,0.507-0.251,0.654-0.542c1.247-1.254,2.436-2.576,3.757-3.75c4.527-4.018,9.075-8.049,15.4-8.973
		c1.412-0.207,2.855-0.198,4.285-0.289c-2.596-1.673-5.366-1.802-8.251-1.36c0.444-0.357,0.886-0.56,1.346-0.69
		c5.609-1.585,10.966-0.297,16.212,1.598c4.685,1.69,9.104,3.972,13.476,6.362c6.745,3.688,13.961,5.093,20.94,1.365
		c6.045-3.231,9.559-7.173,5.663-14.631c-0.797-1.527-1.388-3.161-2.169-4.962c1.306,0.285,1.926,0.983,2.582,1.605
		c0.678,0.646,1.051,1.606,2.422,2.313c-3.818-8.604-10.95-12.89-18.219-17.101c7.497,1.185,14.566,3.469,20.93,7.688
		c0.079,0.087,0.221,0.257,0.229,0.25c0.258-0.192,0.07-0.289-0.095-0.389c-0.066-0.772-0.635-1.282-1.079-1.797
		c-4.034-4.683-8.845-8.415-14.307-11.273c-1.825-0.955-3.866-1.286-5.958-1.422c-7.367-0.481-13.957,2.042-20.412,5.127
		c-0.944,0.451-2.502,0.706-2.56,1.641c-0.063,1.06,1.55,1.181,2.438,1.678c3.784,2.121,7.534,4.271,10.247,7.793
		C201.044,110.99,200.977,111.058,200.91,111.125z M116.271,152.694c-6.273-5.095-11.797-10.877-16.792-17.154
		c-5.379-6.761-10.367-13.809-11.792-22.593c-1.389-8.557,2.551-15.325,11.63-16.144c2.053-0.185,4.141-0.216,6.837-0.471
		c-2.324-1.356-4.074-2.406-5.85-3.409C92.881,88.729,85,86.515,76.408,87.607c-8.711,1.107-17.03,3.694-25.157,6.927
		c-1.838,0.731-3.812,1.245-5.606,2.501c0.518,0.358,0.797,0.574,1.098,0.757c10.925,6.672,20.155,15.211,27.948,25.34
		c8.441,10.97,18.251,20.254,31.349,25.527C109.431,150.025,112.708,151.677,116.271,152.694z M152.418,107.914
		c-1.051-0.352-1.578-0.527-2.106-0.706c-1.128-0.382-2.088-0.94-2.242-2.273c-0.151-1.33,0.396-2.378,1.452-3.121
		c0.689-0.486,1.449-0.903,2.228-1.227c3.116-1.292,6.406-1.799,9.745-1.972c4.217-0.218,8.434-0.107,12.668,0.267
		c-1.155-0.585-2.326-1.042-3.529-1.383c-10.387-2.943-20.834-4.922-31.584-1.897c-2.265,0.638-4.492,1.377-6.474,2.659
		c-3.217,2.081-3.177,5.24,0.033,7.362c1.139,0.751,2.388,1.258,3.716,1.534C141.482,108.228,146.676,108.682,152.418,107.914z
		 M167.256,200.138c7.414-1.752,14.243-4.633,20.363-10.262c-6.765,0.297-12.916,0.423-18.762-2.12
		c-5.685-2.473-10.063-6.672-14.418-10.951c0.659,1.868,1.433,3.548,2.397,5.108c3.699,5.981,9.367,9.316,15.804,11.586
		c2.152,0.76,2.173,0.882,0.397,2.398C171.218,197.449,169.197,198.726,167.256,200.138z M166.669,84.982
		c4.058,3.529,7.973,6.627,12.074,9.495c0.476,0.333,0.944,0.31,1.414,0.219c1.874-0.362,3.729-0.832,5.613-1.142
		c1.688-0.278,1.235-0.861,0.37-1.66c-3.154-2.915-7.073-4.35-11.024-5.714C172.519,85.285,169.854,84.758,166.669,84.982z
		 M200.765,89.635c-2.316,0-3.991,0.002-5.665-0.001c-0.706-0.001-1.384,0.031-2.005-0.488c-5.932-4.96-12.956-7.227-20.5-7.916
		c-3.68-0.336-7.439-0.578-11.082,0.56c2.634,0.056,5.253,0.223,7.85,0.606c7.517,1.11,14.82,2.698,20.231,8.739
		c0.962,1.076,2.222,1.718,3.82,1.107C195.639,91.393,197.9,90.645,200.765,89.635z M216.409,141.73
		c-3.694,0.018-6.866,0.312-10.001-0.22c-0.821-0.14-0.786,0.502-0.847,0.913c-0.563,3.834-1.589,7.533-3.475,11.476
		C207.896,150.821,212.364,146.973,216.409,141.73z M174.511,183.438c3.7,1.464,7.217,1.935,10.835,1.844
		c0.248-0.007,0.555-0.171,0.726-0.36c2.989-3.283,5.453-6.905,7.453-11.404C187.606,178.059,181.55,181.28,174.511,183.438z"/>
</g>
</svg>
